<svg version="1" xmlns="http://www.w3.org/2000/svg" width="1024" height="319.484" viewBox="0 0 1024 319.484"><path fill="#808184" d="M318.938 152.593L436.966 309.83h-96.883l-81.886-100.335V309.83H186.99V11.503h71.207v100.34l81.886-100.34h100.721l-121.866 141.09zM738.261 309.83l-51.904-92.263h-50.359l.387 92.263H564.79V11.503h138.869c7.174 0 14.475 1.346 21.91 4.036 7.436 2.693 14.611 6.283 21.525 10.765a130.798 130.798 0 0 1 19.23 15.187c5.893 5.639 10.887 11.406 14.986 17.298 5.131 7.438 9.041 16.086 11.732 25.952 2.689 9.868 4.035 19.287 4.035 28.256 0 14.866-3.463 28.705-10.387 41.52-6.914 12.819-16.529 23.582-28.826 32.294l69.967 123.018h-89.57zM680.204 78.012h-46.512v64.202h46.512c4.621 0 8.969-.821 13.078-2.479 4.088-1.658 7.686-3.947 10.762-6.878 3.076-2.933 5.508-6.309 7.301-10.128s2.691-8.025 2.691-12.613c0-4.584-.898-8.79-2.691-12.608-1.793-3.822-4.225-7.199-7.301-10.129s-6.674-5.22-10.762-6.878c-4.109-1.66-8.457-2.489-13.078-2.489z"/><path fill="#D0D2D3" d="M60.292 303.103c-10.001-4.479-18.771-10.502-26.333-18.067-7.561-7.556-13.458-16.399-17.687-26.526-4.229-10.126-6.341-20.82-6.341-32.1 0-6.402.959-13.004 2.878-19.804a95.382 95.382 0 0 1 7.885-19.408 83.29 83.29 0 0 1 12.107-16.92c4.745-5.124 9.938-9.477 15.57-13.07-8.708-7.941-15.377-17.233-19.992-27.874-4.609-10.632-6.92-21.72-6.92-33.254 0-9.994 1.731-19.731 5.188-29.216 3.463-9.48 8.4-18.071 14.804-25.76 3.593-4.354 7.879-8.325 12.88-11.917 5-3.585 10.382-6.727 16.148-9.42 5.768-2.69 11.659-4.737 17.682-6.15 6.023-1.406 11.857-2.115 17.494-2.115h156.081V309.83H92.583c-11.534 0-22.301-2.238-32.291-6.727zM108.535 80.51c-6.018 6.025-9.031 13.137-9.031 21.337 0 8.208 3.014 15.32 9.031 21.337 6.027 6.026 13.14 9.035 21.337 9.035h53.437V71.476h-53.437c-8.198 0-15.31 3.016-21.337 9.034zm-2.879 114.76c-5.892 5.897-8.843 12.942-8.843 21.139 0 8.458 2.951 15.644 8.843 21.535 5.897 5.893 13.067 8.839 21.525 8.839h56.127v-60.356h-56.127c-8.458-.001-15.628 2.95-21.525 8.843zM447.691 298.107c-18.188-7.815-34.082-18.452-47.669-31.912-13.578-13.452-24.278-29.272-32.1-47.476-7.811-18.193-11.721-37.544-11.721-58.052 0-20.5 3.91-39.851 11.721-58.052 7.822-18.195 18.521-34.023 32.1-47.479 13.588-13.456 29.482-24.087 47.669-31.906 18.209-7.816 37.678-11.728 58.442-11.728h133.404V309.83H506.133c-20.763 0-40.233-3.901-58.442-11.723zm37.491-207.984c-9.354 3.976-17.499 9.419-24.413 16.339-6.925 6.919-12.369 15.059-16.342 24.411-3.974 9.36-5.955 19.288-5.955 29.795 0 10.512 1.981 20.44 5.955 29.795 3.973 9.359 9.417 17.489 16.342 24.413 6.914 6.92 15.059 12.369 24.413 16.337 9.355 3.979 19.408 5.96 30.171 5.96h45.75V84.163h-45.75c-10.763 0-20.816 1.988-30.171 5.96zM893.061 198.952c0 2.435-.428 4.817-1.278 7.138s-2.069 4.276-3.65 5.856c-2.163 2.143-4.578 3.765-7.248 4.859-2.658 1.095-5.975 1.638-9.944 1.638h-8.722v17.708H848.2v-54.354h23.068c3.458 0 6.373.302 8.74.896 2.377.595 4.473 1.491 6.299 2.681 2.189 1.438 3.862 3.274 5.016 5.517 1.158 2.235 1.738 4.921 1.738 8.061zm-14.492.312c0-1.527-.413-2.847-1.242-3.952s-1.788-1.872-2.882-2.311c-1.461-.578-2.884-.902-4.271-.965-1.389-.063-3.239-.094-5.549-.094h-2.408v16.248h4.014c2.384 0 4.35-.146 5.893-.438 1.548-.292 2.843-.876 3.891-1.752a6.604 6.604 0 0 0 1.949-2.785c.406-1.078.605-2.397.605-3.951zM955.33 236.151h-17.12l-14.787-19.93h-6.491v19.93h-13.943v-54.354h23.506c3.213 0 5.977.188 8.286.553a17.875 17.875 0 0 1 6.496 2.367c2.045 1.22 3.672 2.795 4.871 4.729 1.209 1.935 1.81 4.364 1.81 7.284 0 4.015-.935 7.284-2.79 9.813-1.867 2.534-4.521 4.641-7.979 6.319l18.141 23.289zm-21.864-37.711c0-1.36-.281-2.528-.839-3.504-.56-.97-1.523-1.736-2.884-2.294-.949-.392-2.055-.626-3.321-.715a64.803 64.803 0 0 0-4.417-.13h-5.073v14.642h4.307c2.237 0 4.114-.114 5.621-.334 1.507-.219 2.773-.714 3.795-1.491.976-.756 1.685-1.59 2.134-2.503.453-.912.677-2.138.677-3.671zM1014.314 208.994c0 8.661-2.482 15.539-7.445 20.639-4.965 5.1-11.828 7.645-20.588 7.645-8.733 0-15.585-2.545-20.55-7.645-4.963-5.1-7.445-11.978-7.445-20.639 0-8.738 2.482-15.643 7.445-20.716 4.965-5.074 11.816-7.608 20.55-7.608 8.714 0 15.561 2.534 20.55 7.608 4.991 5.073 7.483 11.977 7.483 20.716zm-18.579 13.756c1.36-1.653 2.372-3.608 3.03-5.855.656-2.248.985-4.896.985-7.941 0-3.259-.375-6.033-1.132-8.322-.757-2.284-1.742-4.135-2.956-5.548-1.242-1.46-2.67-2.514-4.287-3.171a13.36 13.36 0 0 0-5.057-.99c-1.778 0-3.453.317-5.018.949-1.574.636-3.014 1.679-4.328 3.139-1.214 1.366-2.211 3.243-2.971 5.642-.773 2.398-1.153 5.178-1.153 8.343 0 3.233.37 5.986 1.11 8.266.745 2.278 1.726 4.129 2.941 5.563 1.216 1.438 2.639 2.497 4.271 3.181a13.288 13.288 0 0 0 5.147 1.021c1.798 0 3.514-.349 5.146-1.042 1.634-.696 3.058-1.776 4.272-3.235z"/><path fill="#EB2050" d="M894.092 268.845l-15.804 40.984h-14.893L847.7 268.845h13.876l9.51 28.209 9.392-28.209h13.614zM944.609 309.83H901.94v-8.979a225.853 225.853 0 0 0 9.803-7.52c3.269-2.648 5.893-4.938 7.863-6.863 2.946-2.846 5.037-5.328 6.277-7.445 1.242-2.117 1.862-4.208 1.862-6.277 0-2.482-.798-4.396-2.394-5.746-1.591-1.351-3.886-2.023-6.878-2.023-2.237 0-4.595.459-7.065 1.387a32.579 32.579 0 0 0-6.878 3.535h-1.168v-12.076c1.726-.757 4.275-1.513 7.649-2.264a46.1 46.1 0 0 1 10.127-1.137c6.813 0 12.009 1.429 15.585 4.292 3.576 2.862 5.366 6.904 5.366 12.134 0 3.432-.855 6.695-2.576 9.781-1.711 3.093-4.333 6.279-7.863 9.564a96.543 96.543 0 0 1-6.681 5.641c-2.235 1.716-3.831 2.915-4.78 3.598h24.419v10.398z"/></svg>