<svg version="1" xmlns="http://www.w3.org/2000/svg" width="1024" height="221" viewBox="0 0 1024 221"><g fill="#D0D2D3"><path d="M895.755 185.131a9.859 9.859 0 0 1-.627 3.476c-.411 1.135-1.005 2.081-1.772 2.855-1.056 1.042-2.231 1.832-3.527 2.363-1.292.535-2.911.798-4.85.798h-4.243v8.626h-6.828v-26.47h11.235c1.687 0 3.102.146 4.256.438 1.161.291 2.181.723 3.065 1.306 1.065.699 1.882 1.59 2.445 2.685.561 1.089.846 2.399.846 3.923zm-7.056.155c0-.75-.199-1.387-.604-1.926-.404-.536-.87-.913-1.405-1.124-.713-.282-1.405-.441-2.083-.471a66.073 66.073 0 0 0-2.7-.043h-1.172v7.909h1.955c1.157 0 2.118-.072 2.868-.215.757-.143 1.386-.426 1.893-.852.444-.376.765-.828.953-1.354.201-.53.295-1.167.295-1.924zM926.076 203.249h-8.329l-7.207-9.707h-3.159v9.707h-6.792v-26.47h11.446c1.569 0 2.913.089 4.035.27a8.686 8.686 0 0 1 3.166 1.15 6.857 6.857 0 0 1 2.369 2.304c.587.944.886 2.126.886 3.549 0 1.951-.455 3.546-1.358 4.779-.914 1.232-2.206 2.257-3.884 3.074l8.827 11.344zm-10.643-18.359c0-.67-.138-1.236-.407-1.712-.273-.473-.743-.847-1.401-1.117-.471-.194-1.006-.305-1.62-.35a34.53 34.53 0 0 0-2.151-.062h-2.472v7.13h2.097c1.088 0 2.001-.054 2.741-.163.735-.105 1.351-.35 1.841-.726.48-.37.827-.776 1.046-1.22.219-.442.326-1.038.326-1.78zM954.8 190.02c0 4.223-1.201 7.573-3.622 10.057-2.417 2.481-5.759 3.723-10.028 3.723-4.248 0-7.585-1.241-10.003-3.723-2.417-2.483-3.626-5.834-3.626-10.057 0-4.251 1.209-7.613 3.626-10.085 2.418-2.468 5.755-3.705 10.003-3.705 4.252 0 7.582 1.237 10.011 3.705 2.426 2.471 3.639 5.834 3.639 10.085zm-9.045 6.703c.662-.809 1.157-1.758 1.478-2.854.324-1.093.477-2.384.477-3.863 0-1.591-.178-2.938-.549-4.05-.372-1.115-.846-2.018-1.442-2.708-.602-.71-1.3-1.226-2.079-1.541a6.509 6.509 0 0 0-2.464-.484 6.43 6.43 0 0 0-2.446.464c-.764.311-1.47.818-2.11 1.527-.59.668-1.074 1.58-1.449 2.75-.375 1.164-.558 2.518-.558 4.057 0 1.582.176 2.92.539 4.028.364 1.107.841 2.009 1.435 2.708a5.357 5.357 0 0 0 2.081 1.55c.791.333 1.632.5 2.509.5a6.47 6.47 0 0 0 2.509-.506 5.542 5.542 0 0 0 2.069-1.578z"/></g><g fill="#EB2050"><path d="M981.765 183.542l-7.69 19.966h-7.255l-7.652-19.966h6.765l4.633 13.742 4.572-13.742h6.627zM1006.365 203.508h-20.782v-4.371a114.82 114.82 0 0 0 4.777-3.666c1.594-1.288 2.868-2.405 3.828-3.342 1.441-1.385 2.458-2.595 3.062-3.626.604-1.03.906-2.052.906-3.059 0-1.207-.393-2.143-1.172-2.798-.768-.658-1.882-.987-3.346-.987-1.088 0-2.238.229-3.442.675a16.003 16.003 0 0 0-3.35 1.727h-.564v-5.887c.834-.366 2.079-.729 3.725-1.1a22.415 22.415 0 0 1 4.924-.55c3.328 0 5.858.694 7.598 2.085 1.74 1.393 2.613 3.361 2.613 5.91 0 1.673-.418 3.262-1.256 4.767-.837 1.502-2.11 3.058-3.829 4.656a47.628 47.628 0 0 1-3.254 2.744 91.453 91.453 0 0 1-2.329 1.747h11.892v5.075z"/></g><path fill="#808184" d="M410.106 165.064h-28.421l-7.433-21.57h-39.488l-7.434 21.57h-27.734l39.419-106.708h31.677l39.414 106.708zm-42.471-41.135l-13.126-38.228-13.13 38.228h26.256zM455.33 167.144c-7.935 0-15.256-1.173-21.967-3.513-6.715-2.338-12.483-5.827-17.307-10.462-4.828-4.633-8.564-10.414-11.219-17.342-2.652-6.927-3.974-14.93-3.974-24.008 0-8.458 1.264-16.125 3.797-23.005 2.531-6.881 6.21-12.781 11.036-17.703 4.633-4.729 10.378-8.382 17.235-10.964 6.855-2.581 14.346-3.868 22.468-3.868 4.492 0 8.537.249 12.147.749 3.607.501 6.937 1.16 9.999 1.971 3.197.909 6.101 1.926 8.707 3.046a168.934 168.934 0 0 1 6.847 3.12v25.872h-3.156a136.455 136.455 0 0 0-5.052-4.064c-2.032-1.571-4.335-3.115-6.917-4.636-2.628-1.52-5.471-2.805-8.525-3.849-3.062-1.046-6.337-1.571-9.821-1.571-3.869 0-7.55.609-11.036 1.824-3.493 1.216-6.713 3.231-9.677 6.041-2.819 2.72-5.101 6.32-6.843 10.804-1.747 4.479-2.615 9.916-2.615 16.304 0 6.675.942 12.251 2.83 16.736 1.886 4.481 4.265 8.012 7.13 10.585 2.913 2.621 6.162 4.495 9.745 5.613 3.583 1.12 7.121 1.681 10.609 1.681 3.341 0 6.65-.5 9.926-1.496 3.269-.999 6.293-2.354 9.067-4.066a60.4 60.4 0 0 0 6.524-4.419c2.005-1.57 3.654-2.924 4.942-4.065h2.869v25.512a760.309 760.309 0 0 1-7.669 3.37 63.305 63.305 0 0 1-7.669 2.722c-3.49 1.003-6.763 1.768-9.821 2.294-3.059.525-7.262.787-12.61.787z"/><path fill="#D0D2D3" d="M550.509 107.652l43.095 57.412H558.23l-29.903-36.637v36.637h-29.892V56.131h29.892v36.638l29.903-36.638h36.779l-44.5 51.521z"/><path fill="#D0D2D3" d="M603.431 160.783c-6.646-2.855-12.44-6.737-17.402-11.651-4.961-4.914-8.867-10.688-11.722-17.336-2.856-6.645-4.283-13.71-4.283-21.198 0-7.488 1.427-14.548 4.283-21.194 2.854-6.645 6.761-12.424 11.722-17.336 4.962-4.914 10.757-8.797 17.402-11.652 6.644-2.854 13.756-4.284 21.335-4.284h48.715v108.933h-48.715c-7.579-.001-14.692-1.422-21.335-4.282zm13.695-75.943c-3.419 1.452-6.393 3.439-8.918 5.966-2.526 2.527-4.518 5.499-5.963 8.914-1.452 3.418-2.181 7.045-2.181 10.878 0 3.839.729 7.463 2.181 10.879 1.445 3.419 3.437 6.39 5.963 8.916 2.525 2.524 5.499 4.516 8.918 5.964 3.414 1.454 7.079 2.175 11.015 2.175h16.7v-55.87h-16.7c-3.936 0-7.601.728-11.015 2.178z"/><path fill="#808184" d="M786.305 111.746c0 17.01-4.875 30.52-14.621 40.527-9.745 10.011-23.225 15.014-40.428 15.014-17.145 0-30.592-5.003-40.342-15.014-9.745-10.007-14.619-23.517-14.619-40.527 0-17.149 4.874-30.709 14.619-40.669 9.75-9.962 23.197-14.945 40.342-14.945 17.108 0 30.563 4.983 40.354 14.945 9.794 9.96 14.695 23.519 14.695 40.669zm-36.481 27.016c2.672-3.247 4.658-7.08 5.952-11.499 1.287-4.419 1.933-9.615 1.933-15.589 0-6.402-.743-11.849-2.225-16.339-1.482-4.489-3.411-8.122-5.803-10.893-2.438-2.868-5.24-4.946-8.416-6.236a26.2 26.2 0 0 0-9.93-1.937c-3.486 0-6.771.624-9.854 1.865-3.084 1.244-5.915 3.298-8.496 6.165-2.388 2.677-4.332 6.365-5.839 11.073-1.507 4.704-2.261 10.163-2.261 16.374 0 6.354.729 11.765 2.185 16.235 1.464 4.464 3.386 8.11 5.771 10.927 2.391 2.821 5.186 4.9 8.386 6.233 3.199 1.338 6.574 2.008 10.108 2.008 3.538 0 6.901-.68 10.108-2.042 3.194-1.362 5.99-3.476 8.381-6.345zM900.063 111.746c0 17.01-4.869 30.52-14.618 40.527-9.744 10.011-23.221 15.014-40.419 15.014-17.152 0-30.605-5.003-40.347-15.014-9.748-10.007-14.625-23.517-14.625-40.527 0-17.149 4.877-30.709 14.625-40.669 9.741-9.962 23.194-14.945 40.347-14.945 17.104 0 30.558 4.983 40.347 14.945 9.796 9.96 14.69 23.519 14.69 40.669zm-36.476 27.016c2.679-3.247 4.66-7.08 5.947-11.499 1.294-4.419 1.937-9.615 1.937-15.589 0-6.402-.742-11.849-2.22-16.339-1.478-4.489-3.415-8.122-5.806-10.893-2.439-2.868-5.242-4.946-8.423-6.236a26.103 26.103 0 0 0-9.924-1.937c-3.486 0-6.773.624-9.853 1.865-3.083 1.244-5.912 3.298-8.493 6.165-2.391 2.677-4.339 6.365-5.839 11.073-1.507 4.704-2.257 10.163-2.257 16.374 0 6.354.725 11.765 2.185 16.235 1.452 4.464 3.378 8.11 5.766 10.927 2.392 2.821 5.19 4.9 8.383 6.233 3.204 1.338 6.571 2.008 10.108 2.008 3.538 0 6.909-.68 10.102-2.042 3.203-1.362 5.999-3.476 8.387-6.345z"/><path fill="#D0D2D3" d="M971.023 165.064l-18.949-33.69h-18.391l.139 33.69H903.78V56.131h54.612c2.617 0 5.278.493 7.997 1.476a38.387 38.387 0 0 1 7.858 3.932 47.003 47.003 0 0 1 7.019 5.545c2.159 2.057 3.979 4.166 5.479 6.314 1.866 2.717 3.297 5.876 4.284 9.477.982 3.603 1.467 7.042 1.467 10.316 0 5.429-1.256 10.483-3.781 15.162-2.534 4.683-6.043 8.613-10.531 11.792l25.55 44.919h-32.711zm-21.2-84.647h-16.984v23.442h16.984c1.69 0 3.276-.297 4.775-.904a12.41 12.41 0 0 0 3.932-2.51 12.371 12.371 0 0 0 2.669-3.697c.647-1.398.982-2.932.982-4.607 0-1.674-.335-3.21-.982-4.604a12.338 12.338 0 0 0-2.669-3.698 12.352 12.352 0 0 0-3.932-2.514 12.609 12.609 0 0 0-4.775-.908zM221.939 162.612c-3.645-1.635-6.842-3.83-9.602-6.592-2.755-2.749-4.903-5.981-6.448-9.668-1.541-3.693-2.31-7.595-2.31-11.71 0-2.332.35-4.743 1.049-7.218a34.75 34.75 0 0 1 2.873-7.076 30.205 30.205 0 0 1 4.418-6.172 29.089 29.089 0 0 1 5.676-4.765c-3.174-2.899-5.606-6.289-7.293-10.166a30.22 30.22 0 0 1-2.522-12.122c0-3.648.635-7.2 1.894-10.657a31.476 31.476 0 0 1 5.401-9.396c1.306-1.585 2.87-3.031 4.693-4.349a37.835 37.835 0 0 1 5.889-3.432 33.418 33.418 0 0 1 6.45-2.242c2.195-.513 4.319-.768 6.38-.768h56.915v108.786h-61.685c-4.203-.001-8.131-.815-11.778-2.453zm17.594-81.171c-2.194 2.195-3.295 4.79-3.295 7.781s1.102 5.587 3.295 7.781c2.201 2.193 4.794 3.291 7.785 3.291h19.485V78.145h-19.485c-2.991 0-5.584 1.101-7.785 3.296zm-1.047 41.845c-2.149 2.15-3.225 4.726-3.225 7.715 0 3.079 1.075 5.701 3.225 7.848 2.147 2.151 4.765 3.221 7.849 3.221h20.467v-22.008h-20.467c-3.084.001-5.701 1.079-7.849 3.224z"/><path fill-rule="evenodd" clip-rule="evenodd" fill="#FF004A" d="M17.171 116.478c17.015 0 19.341 10.054 19.341 17.318 0 6.321-.932 12.64-1.862 18.956-1.015 6.323-1.948 12.871-1.948 19.199 0 23.644 14.413 32.104 33.706 32.104h53.224c19.062 0 33.706-8.461 33.706-32.104 0-6.328-.93-12.876-1.859-19.199-1.019-6.315-1.947-12.635-1.947-18.956 0-7.264 2.324-17.318 18.826-17.318l.541-11.513c-17.042 0-19.367-8.998-19.367-17.068 0-6.461.928-12.918 1.858-19.378 1.018-6.457 1.948-12.681 1.948-19.139 0-21.284-14.179-30.442-33.937-30.442H66.408c-19.758 0-33.706 9.158-33.706 30.442 0 6.458.933 12.682 1.861 19.139 1.017 6.46 1.949 12.917 1.949 19.378 0 8.07-2.326 17.068-18.828 17.068l-.513 11.513zm49.937 74.661h-.441l51.922-10.378V43.004L78.286 31.852h40.652c13.479.229 18.36 7.376 18.36 19.831 0 5.307-.93 10.847-1.625 16.376-.634 5.768-1.542 11.304-1.542 17.531 0 14.758 6.345 22.082 16.328 24.786v.458c-9.983 2.48-16.328 10.329-16.328 25.303 0 6.32.907 12.173 1.811 17.791.426 5.852 1.356 11.224 1.356 16.846 0 13.102-5.577 20.125-18.593 20.366H67.108zm37.532-72.678c0-2.354 1.909-4.258 4.265-4.258s4.259 1.904 4.259 4.258c0 2.355-1.903 4.259-4.259 4.259s-4.265-1.903-4.265-4.259z"/></svg>